<mxfile host="app.diagrams.net" modified="2024-05-17T22:51:06.818Z" agent="Mozilla/5.0 (Windows NT 10.0; Win64; x64; rv:125.0) Gecko/20100101 Firefox/125.0" etag="w18TjhoO-s0Q047LRsc_" version="24.4.4" type="github">
  <diagram name="Página-1" id="5AZ9xxgZzm523hcU_7wC">
    <mxGraphModel dx="1994" dy="1157" grid="1" gridSize="10" guides="1" tooltips="1" connect="1" arrows="1" fold="1" page="1" pageScale="1" pageWidth="827" pageHeight="1169" math="0" shadow="0">
      <root>
        <mxCell id="0" />
        <mxCell id="1" parent="0" />
        <mxCell id="Sv66Rmfc2I0Jqb1ikX8F-1" style="edgeStyle=orthogonalEdgeStyle;rounded=0;orthogonalLoop=1;jettySize=auto;html=1;entryX=0.5;entryY=1;entryDx=0;entryDy=0;exitX=1;exitY=0.5;exitDx=0;exitDy=0;endArrow=none;endFill=0;" edge="1" parent="1" source="Sv66Rmfc2I0Jqb1ikX8F-2" target="Sv66Rmfc2I0Jqb1ikX8F-6">
          <mxGeometry relative="1" as="geometry" />
        </mxCell>
        <mxCell id="Sv66Rmfc2I0Jqb1ikX8F-2" value="warGame:WarGame" style="html=1;whiteSpace=wrap;" vertex="1" parent="1">
          <mxGeometry x="235" y="565" width="110" height="50" as="geometry" />
        </mxCell>
        <mxCell id="Sv66Rmfc2I0Jqb1ikX8F-3" style="edgeStyle=orthogonalEdgeStyle;rounded=0;orthogonalLoop=1;jettySize=auto;html=1;endArrow=none;endFill=0;entryX=0;entryY=0.5;entryDx=0;entryDy=0;exitX=0.5;exitY=1;exitDx=0;exitDy=0;" edge="1" parent="1" source="Sv66Rmfc2I0Jqb1ikX8F-4" target="Sv66Rmfc2I0Jqb1ikX8F-2">
          <mxGeometry relative="1" as="geometry" />
        </mxCell>
        <mxCell id="Sv66Rmfc2I0Jqb1ikX8F-4" value="player2: Player" style="html=1;whiteSpace=wrap;" vertex="1" parent="1">
          <mxGeometry x="125" y="420" width="110" height="50" as="geometry" />
        </mxCell>
        <mxCell id="Sv66Rmfc2I0Jqb1ikX8F-5" style="edgeStyle=orthogonalEdgeStyle;rounded=0;orthogonalLoop=1;jettySize=auto;html=1;entryX=0.5;entryY=1;entryDx=0;entryDy=0;endArrow=none;endFill=0;" edge="1" parent="1" source="Sv66Rmfc2I0Jqb1ikX8F-6" target="Sv66Rmfc2I0Jqb1ikX8F-7">
          <mxGeometry relative="1" as="geometry" />
        </mxCell>
        <mxCell id="Sv66Rmfc2I0Jqb1ikX8F-6" value="player1: Player" style="html=1;whiteSpace=wrap;" vertex="1" parent="1">
          <mxGeometry x="345" y="420" width="110" height="50" as="geometry" />
        </mxCell>
        <mxCell id="Sv66Rmfc2I0Jqb1ikX8F-7" value="source: Territory" style="html=1;whiteSpace=wrap;" vertex="1" parent="1">
          <mxGeometry x="345" y="295" width="110" height="50" as="geometry" />
        </mxCell>
        <mxCell id="Sv66Rmfc2I0Jqb1ikX8F-8" style="edgeStyle=orthogonalEdgeStyle;rounded=0;orthogonalLoop=1;jettySize=auto;html=1;entryX=0;entryY=0.5;entryDx=0;entryDy=0;endArrow=none;endFill=0;" edge="1" parent="1" source="Sv66Rmfc2I0Jqb1ikX8F-10" target="Sv66Rmfc2I0Jqb1ikX8F-12">
          <mxGeometry relative="1" as="geometry" />
        </mxCell>
        <mxCell id="Sv66Rmfc2I0Jqb1ikX8F-9" style="edgeStyle=orthogonalEdgeStyle;rounded=0;orthogonalLoop=1;jettySize=auto;html=1;entryX=0.5;entryY=0;entryDx=0;entryDy=0;endArrow=none;endFill=0;exitX=0.5;exitY=1;exitDx=0;exitDy=0;" edge="1" parent="1" source="Sv66Rmfc2I0Jqb1ikX8F-10" target="Sv66Rmfc2I0Jqb1ikX8F-4">
          <mxGeometry relative="1" as="geometry" />
        </mxCell>
        <mxCell id="Sv66Rmfc2I0Jqb1ikX8F-10" value="target: Territory" style="html=1;whiteSpace=wrap;" vertex="1" parent="1">
          <mxGeometry x="125" y="295" width="110" height="50" as="geometry" />
        </mxCell>
        <mxCell id="Sv66Rmfc2I0Jqb1ikX8F-11" style="edgeStyle=orthogonalEdgeStyle;rounded=0;orthogonalLoop=1;jettySize=auto;html=1;entryX=0.5;entryY=0;entryDx=0;entryDy=0;exitX=1;exitY=0.5;exitDx=0;exitDy=0;endArrow=none;endFill=0;" edge="1" parent="1" source="Sv66Rmfc2I0Jqb1ikX8F-12" target="Sv66Rmfc2I0Jqb1ikX8F-7">
          <mxGeometry relative="1" as="geometry" />
        </mxCell>
        <mxCell id="Sv66Rmfc2I0Jqb1ikX8F-12" value="reg: Region" style="html=1;whiteSpace=wrap;" vertex="1" parent="1">
          <mxGeometry x="235" y="145" width="110" height="50" as="geometry" />
        </mxCell>
        <mxCell id="Sv66Rmfc2I0Jqb1ikX8F-13" value="&lt;div&gt;Projeto de Objetos da Pré-condição&lt;/div&gt;" style="shape=umlFrame;whiteSpace=wrap;html=1;pointerEvents=0;width=130;height=40;" vertex="1" parent="1">
          <mxGeometry x="20" y="90" width="540" height="580" as="geometry" />
        </mxCell>
        <mxCell id="Sv66Rmfc2I0Jqb1ikX8F-14" style="edgeStyle=orthogonalEdgeStyle;rounded=0;orthogonalLoop=1;jettySize=auto;html=1;entryX=1;entryY=0.5;entryDx=0;entryDy=0;exitX=0.5;exitY=0;exitDx=0;exitDy=0;endArrow=none;endFill=0;" edge="1" parent="1" source="Sv66Rmfc2I0Jqb1ikX8F-16" target="Sv66Rmfc2I0Jqb1ikX8F-22">
          <mxGeometry relative="1" as="geometry" />
        </mxCell>
        <mxCell id="Sv66Rmfc2I0Jqb1ikX8F-15" style="edgeStyle=orthogonalEdgeStyle;rounded=0;orthogonalLoop=1;jettySize=auto;html=1;entryX=0;entryY=0.5;entryDx=0;entryDy=0;endArrow=none;endFill=0;" edge="1" parent="1" source="Sv66Rmfc2I0Jqb1ikX8F-16" target="Sv66Rmfc2I0Jqb1ikX8F-31">
          <mxGeometry relative="1" as="geometry" />
        </mxCell>
        <mxCell id="Sv66Rmfc2I0Jqb1ikX8F-16" value="warGame:WarGame" style="html=1;whiteSpace=wrap;" vertex="1" parent="1">
          <mxGeometry x="1170" y="379.91999999999996" width="110" height="50" as="geometry" />
        </mxCell>
        <mxCell id="Sv66Rmfc2I0Jqb1ikX8F-17" style="edgeStyle=orthogonalEdgeStyle;rounded=0;orthogonalLoop=1;jettySize=auto;html=1;endArrow=none;endFill=0;entryX=0.5;entryY=1;entryDx=0;entryDy=0;exitX=1;exitY=0.5;exitDx=0;exitDy=0;" edge="1" parent="1" source="Sv66Rmfc2I0Jqb1ikX8F-19" target="Sv66Rmfc2I0Jqb1ikX8F-16">
          <mxGeometry relative="1" as="geometry" />
        </mxCell>
        <mxCell id="Sv66Rmfc2I0Jqb1ikX8F-18" style="edgeStyle=orthogonalEdgeStyle;rounded=0;orthogonalLoop=1;jettySize=auto;html=1;entryX=0.5;entryY=1;entryDx=0;entryDy=0;endArrow=none;endFill=0;exitX=0.5;exitY=1;exitDx=0;exitDy=0;" edge="1" parent="1" source="Sv66Rmfc2I0Jqb1ikX8F-26" target="Sv66Rmfc2I0Jqb1ikX8F-31">
          <mxGeometry relative="1" as="geometry">
            <Array as="points">
              <mxPoint x="887" y="580" />
              <mxPoint x="1480" y="580" />
            </Array>
          </mxGeometry>
        </mxCell>
        <mxCell id="Sv66Rmfc2I0Jqb1ikX8F-19" value="player2: Player" style="html=1;whiteSpace=wrap;" vertex="1" parent="1">
          <mxGeometry x="1030" y="469.91999999999996" width="110" height="50" as="geometry" />
        </mxCell>
        <mxCell id="Sv66Rmfc2I0Jqb1ikX8F-20" style="edgeStyle=orthogonalEdgeStyle;rounded=0;orthogonalLoop=1;jettySize=auto;html=1;entryX=1;entryY=0.5;entryDx=0;entryDy=0;endArrow=none;endFill=0;" edge="1" parent="1" source="Sv66Rmfc2I0Jqb1ikX8F-22" target="Sv66Rmfc2I0Jqb1ikX8F-23">
          <mxGeometry relative="1" as="geometry" />
        </mxCell>
        <mxCell id="Sv66Rmfc2I0Jqb1ikX8F-21" style="edgeStyle=orthogonalEdgeStyle;rounded=0;orthogonalLoop=1;jettySize=auto;html=1;entryX=0.5;entryY=0;entryDx=0;entryDy=0;endArrow=none;endFill=0;exitX=0.5;exitY=0;exitDx=0;exitDy=0;" edge="1" parent="1" source="Sv66Rmfc2I0Jqb1ikX8F-23" target="Sv66Rmfc2I0Jqb1ikX8F-31">
          <mxGeometry relative="1" as="geometry">
            <Array as="points">
              <mxPoint x="887" y="210" />
              <mxPoint x="1480" y="210" />
            </Array>
          </mxGeometry>
        </mxCell>
        <mxCell id="Sv66Rmfc2I0Jqb1ikX8F-22" value="player1: Player" style="html=1;whiteSpace=wrap;" vertex="1" parent="1">
          <mxGeometry x="1030" y="279.91999999999996" width="110" height="50" as="geometry" />
        </mxCell>
        <mxCell id="Sv66Rmfc2I0Jqb1ikX8F-23" value="source: Territory" style="html=1;whiteSpace=wrap;" vertex="1" parent="1">
          <mxGeometry x="832" y="279.91999999999996" width="110" height="50" as="geometry" />
        </mxCell>
        <mxCell id="Sv66Rmfc2I0Jqb1ikX8F-24" style="edgeStyle=orthogonalEdgeStyle;rounded=0;orthogonalLoop=1;jettySize=auto;html=1;entryX=0.5;entryY=1;entryDx=0;entryDy=0;endArrow=none;endFill=0;" edge="1" parent="1" source="Sv66Rmfc2I0Jqb1ikX8F-26" target="Sv66Rmfc2I0Jqb1ikX8F-28">
          <mxGeometry relative="1" as="geometry" />
        </mxCell>
        <mxCell id="Sv66Rmfc2I0Jqb1ikX8F-25" style="edgeStyle=orthogonalEdgeStyle;rounded=0;orthogonalLoop=1;jettySize=auto;html=1;entryX=0;entryY=0.5;entryDx=0;entryDy=0;endArrow=none;endFill=0;exitX=1;exitY=0.5;exitDx=0;exitDy=0;" edge="1" parent="1" source="Sv66Rmfc2I0Jqb1ikX8F-26" target="Sv66Rmfc2I0Jqb1ikX8F-19">
          <mxGeometry relative="1" as="geometry" />
        </mxCell>
        <mxCell id="Sv66Rmfc2I0Jqb1ikX8F-26" value="target: Territory" style="html=1;whiteSpace=wrap;" vertex="1" parent="1">
          <mxGeometry x="832" y="469.91999999999996" width="110" height="50" as="geometry" />
        </mxCell>
        <mxCell id="Sv66Rmfc2I0Jqb1ikX8F-27" style="edgeStyle=orthogonalEdgeStyle;rounded=0;orthogonalLoop=1;jettySize=auto;html=1;entryX=0;entryY=0.5;entryDx=0;entryDy=0;exitX=0.5;exitY=0;exitDx=0;exitDy=0;endArrow=none;endFill=0;" edge="1" parent="1" source="Sv66Rmfc2I0Jqb1ikX8F-28" target="Sv66Rmfc2I0Jqb1ikX8F-23">
          <mxGeometry relative="1" as="geometry" />
        </mxCell>
        <mxCell id="Sv66Rmfc2I0Jqb1ikX8F-28" value="reg: Region" style="html=1;whiteSpace=wrap;" vertex="1" parent="1">
          <mxGeometry x="680" y="379.91999999999996" width="110" height="50" as="geometry" />
        </mxCell>
        <mxCell id="Sv66Rmfc2I0Jqb1ikX8F-29" value="&lt;div&gt;Projeto de Objetos da Pós-condição&lt;/div&gt;" style="shape=umlFrame;whiteSpace=wrap;html=1;pointerEvents=0;width=130;height=40;" vertex="1" parent="1">
          <mxGeometry x="650" y="130" width="1220" height="540" as="geometry" />
        </mxCell>
        <mxCell id="Sv66Rmfc2I0Jqb1ikX8F-30" style="edgeStyle=orthogonalEdgeStyle;rounded=0;orthogonalLoop=1;jettySize=auto;html=1;endArrow=none;endFill=0;" edge="1" parent="1" source="Sv66Rmfc2I0Jqb1ikX8F-31" target="Sv66Rmfc2I0Jqb1ikX8F-33">
          <mxGeometry relative="1" as="geometry" />
        </mxCell>
        <mxCell id="Sv66Rmfc2I0Jqb1ikX8F-31" value="&lt;blockquote&gt;attackPhase: TerritoryConfrontPhase&lt;/blockquote&gt;" style="html=1;whiteSpace=wrap;" vertex="1" parent="1">
          <mxGeometry x="1410" y="379.91999999999996" width="140" height="50" as="geometry" />
        </mxCell>
        <mxCell id="Sv66Rmfc2I0Jqb1ikX8F-32" style="edgeStyle=orthogonalEdgeStyle;rounded=0;orthogonalLoop=1;jettySize=auto;html=1;endArrow=none;endFill=0;" edge="1" parent="1" source="Sv66Rmfc2I0Jqb1ikX8F-33" target="Sv66Rmfc2I0Jqb1ikX8F-34">
          <mxGeometry relative="1" as="geometry" />
        </mxCell>
        <mxCell id="Sv66Rmfc2I0Jqb1ikX8F-33" value="diceCon: DiceConfront" style="html=1;whiteSpace=wrap;" vertex="1" parent="1">
          <mxGeometry x="1720" y="379.91999999999996" width="110" height="50" as="geometry" />
        </mxCell>
        <mxCell id="Sv66Rmfc2I0Jqb1ikX8F-34" value="dice: Dice" style="html=1;whiteSpace=wrap;" vertex="1" parent="1">
          <mxGeometry x="1720" y="530" width="110" height="50" as="geometry" />
        </mxCell>
      </root>
    </mxGraphModel>
  </diagram>
</mxfile>
